<?xml version="1.0" encoding="UTF-8"?>
<svg xmlns="http://www.w3.org/2000/svg" width="297" height="210" viewBox="0 0 297 210">
  <defs>
    <style>
      .cls-1 {
        fill: #f2f4f5;
      }

      .cls-2 {
        fill: #81acd2;
      }

      .cls-3 {
        fill: #152d5a;
      }

      .cls-4 {
        fill: #315890;
      }
    </style>
  </defs>
  <g id="Layer_1" data-name="Layer 1">
    <rect class="cls-1" x="0" width="297" height="210"/>
  </g>
  <g id="Layer_2" data-name="Layer 2">
    <path class="cls-4" d="M0,134v50.5h297.03l-.03-170.5s-24-6-44.14,25.75c-10.83,17.07-11.21,89.63-55.86,98.25-44.65,8.62-101-31-121-35S22.81,104.19,0,134Z"/>
    <path class="cls-2" d="M0,140l1,56.5,296,.5V34s-23-14-43.14,17.75c-10.83,17.07-9.21,83.63-53.86,92.25-44.65,8.62-103-30-123-34S22.81,110.19,0,140Z"/>
    <path class="cls-3" d="M0,141.54v68.96h297.03l-.03-164.5s-22.66-11.5-44.14,19.75c-11.45,16.66-6.21,73.63-50.86,82.25-44.65,8.62-101-27-121-31S22.81,111.73,0,141.54Z"/>
  </g>
</svg>