<?xml version="1.0" encoding="UTF-8"?>
<svg id="Layer_1" data-name="Layer 1" xmlns="http://www.w3.org/2000/svg" width="24.09" height="24.09" viewBox="0 0 24.09 24.09">
  <defs>
    <style>
      .cls-1 {
        fill: none;
        stroke: #fff;
      }

      .cls-1, .cls-2 {
        stroke-linecap: round;
        stroke-width: .5px;
      }

      .cls-3 {
        fill: #fff;
      }

      .cls-2 {
        stroke: #144473;
        stroke-linejoin: round;
      }

      .cls-2, .cls-4 {
        fill: #144473;
      }
    </style>
  </defs>
  <path class="cls-4" d="M24.09,12.26c-.12,6.65-5.6,11.95-12.26,11.84C5.18,23.98-.11,18.49,0,11.84.12,5.18,5.61-.11,12.26,0c6.65.12,11.95,5.6,11.84,12.26"/>
  <rect class="cls-3" x="3.47" y="9.67" width="17.06" height="5.69" rx="1.42" ry="1.42"/>
  <rect class="cls-3" x="5.42" y="6.39" width="13.12" height="3.28" rx=".98" ry=".98"/>
  <rect class="cls-2" x="7.01" y="7.29" width="1.67" height="1.48"/>
  <rect class="cls-2" x="9.77" y="7.29" width="1.67" height="1.48"/>
  <rect class="cls-2" x="12.5" y="7.29" width="1.67" height="1.48"/>
  <rect class="cls-2" x="15.32" y="7.3" width="1.67" height="1.48"/>
  <path class="cls-1" d="M2.61,17.48c1.18-1.26,2.35-1.26,3.51.02s2.33,1.28,3.51.02c1.18-1.26,2.35-1.26,3.51.02s2.33,1.28,3.51.02,2.35-1.26,3.51.02"/>
  <path class="cls-1" d="M2.83,19.57c1.18-1.26,2.35-1.26,3.51.02s2.33,1.28,3.51.02c1.18-1.26,2.35-1.26,3.51.02s2.33,1.28,3.51.02,2.35-1.26,3.51.02"/>
</svg>