<svg width="132" height="132" viewBox="0 0 133 132" fill="none" xmlns="http://www.w3.org/2000/svg">
<path d="M62.2703 2.13755L62.2705 2.13753C108.426 -0.817615 142.924 44.4051 127.098 88.0633C118.833 110.865 95.7954 128.39 71.4821 129.875C25.6604 132.669 -8.52772 88.1141 6.65598 44.6672L6.65629 44.6663C14.6648 21.7154 37.879 3.69631 62.2703 2.13755Z" fill="white" stroke="#143C6D" stroke-width="4"/>
<path d="M71.2805 20.0911C75.0213 19.5034 76.2257 21.949 76.5346 22.002C81.5725 19.3745 85.8962 21.3006 89.1814 25.441C90.9495 24.7054 92.6249 25.1225 93.6557 26.7794C97.7053 26.2106 100.666 30.7074 99.7822 34.3283C106.025 38.1388 102.913 43.5342 103.091 44.0726C105.067 45.4565 105.808 48.1598 105.036 50.3779C104.836 50.958 101.705 54.6888 101.048 55.6329C98.6009 56.395 97.7091 59.7847 93.0727 59.2614C90.2044 58.9391 89.579 56.4974 88.9884 56.5846C86.1394 60.3913 81.3524 60.4899 77.9012 57.3505C75.5154 60.4444 69.3541 61.1762 67.7868 57.5401C67.3235 57.2974 62.3976 61.2027 58.2553 56.5846C52.2562 58.8823 45.6278 54.158 49.4033 48.2736C46.8438 45.8318 47.5117 41.1076 50.6696 39.39C55.2751 38.3246 51.7157 38.1957 52.9086 35.6629C53.4645 34.4838 55.8464 34.7947 56.0201 34.3245C54.5609 30.5633 56.9775 27.4353 60.9808 27.1585C61.722 26.7301 61.6178 21.2551 67.9837 22.3812C68.8137 21.3878 69.9448 20.2996 71.2921 20.0873L71.2805 20.0911Z" fill="#143C6D"/>
<path d="M67.0076 58.0812C67.1803 57.9658 68.4636 60.3698 69.5782 61.2703C69.845 61.4824 75.3982 64.7534 75.6101 63.9906C74.1659 61.8955 72.2508 58.6245 75.512 61.4601C78.4005 54.2482 75.4806 64.8911 78.8753 65.3972C80.6139 65.6577 83.3375 62.4686 83.7221 61.7392C84.0321 61.1512 83.9654 58.5798 84.4128 61.4564C87.156 58.5166 86.6851 59.8525 84.5109 62.6769C87.6584 63.7598 89.3498 59.4357 89.652 60.6154C89.7227 60.8907 87.4543 62.93 86.9834 63.1458C86.5517 63.3468 81.3399 63.8678 79.7662 68.4896C78.7655 71.4331 79.3855 77.0746 80.1626 80.1149C82.2072 88.1045 84.664 83.0659 72.8434 85.3656C75.983 79.78 77.6077 73.9041 76.4029 67.5518C70.94 62.8109 67.4707 60.0386 59.5942 61.3633C62.2708 60.18 65.5634 60.3995 68.3969 60.8944C68.4047 60.2842 66.3365 58.5314 67.0116 58.0812H67.0076Z" fill="#143C6D"/>
<path d="M112.033 81.7082C115.755 81.2593 118.89 84.9452 114.904 88.1009C112.917 89.6755 87.1667 103.739 82.1552 107.282C69.4692 115.015 62.612 96.9432 36.5766 106.134C33.4579 102.233 30.5267 95.4467 30.3291 90.5604C33.0459 90.0366 40.5295 88.9663 42.4825 88.1009C43.5846 87.6129 46.9446 83.927 54.1301 83.3479C65.1546 82.4597 66.0691 87.9122 70.8427 89.2493C77.6262 91.1524 93.3305 86.266 91.8599 93.7583C90.7343 99.4775 65.1981 97.6329 63.416 98.2673C63.0542 98.3975 63.3389 98.905 63.416 98.9245C64.4846 99.1815 83.187 98.1242 85.3611 97.7761C95.3002 96.1852 91.5986 91.5461 92.1145 90.7263C95.2165 89.3924 110.492 81.8969 112.033 81.7082Z" fill="#143C6D"/>
<path d="M29.1433 87.6133C29.9138 95.2096 32.6038 102.526 37.498 108.515C37.4678 109.16 32.5904 110.767 31.8433 111.385C26.7314 107.891 22.0985 95.9514 23.1504 89.9914L29.1433 87.6133Z" fill="#143C6D"/>
<path d="M110.007 79.743C111.946 79.6291 113.728 81.0085 113.045 81.22C112.288 81.1972 111.39 81.298 110.68 81.5486C107.052 82.8271 96.2117 88.3576 91.7731 90.4007L90.3394 89.6622C93.0293 87.5573 107.725 79.8796 110.007 79.743Z" fill="#143C6D"/>
<path d="M106.124 79.2493C106.834 79.181 107.457 79.3242 108.151 79.412V79.7406C105.129 80.0724 90.3091 89.3312 89.2438 89.4125C89.1199 89.4223 88.6576 89.2011 88.3159 89.1653C90.9087 86.9791 103.752 79.4738 106.127 79.2461L106.124 79.2493Z" fill="#143C6D"/>
<path d="M100.891 79.5779C106.063 78.9663 99.635 81.4127 95.9971 83.5111C94.6504 84.2886 88.1918 88.6024 87.7262 88.7586C87.1433 88.9538 86.5537 89.0188 85.9541 88.8399C88.1382 86.6635 98.6167 79.8447 100.895 79.5779H100.891Z" fill="#143C6D"/>
</svg>
