<svg width="132" height="132" viewBox="0 0 132 132" fill="none" xmlns="http://www.w3.org/2000/svg">
<path d="M61.2703 2.13755L61.2705 2.13753C107.426 -0.817615 141.924 44.4051 126.098 88.0633C117.833 110.865 94.7954 128.39 70.4821 129.875C24.6604 132.669 -9.52772 88.1141 5.65598 44.6672L5.65629 44.6663C13.6648 21.7154 36.879 3.69631 61.2703 2.13755Z" fill="white" stroke="#143C6D" stroke-width="4"/>
<path d="M37.7142 55.0518L26.3999 66.938L37.7142 78.8243" stroke="#144372" stroke-width="5" stroke-linecap="round" stroke-linejoin="round"/>
<path d="M54.6855 39.4122L65.9998 26.9004L77.3141 39.4122" stroke="#144372" stroke-width="5" stroke-linecap="round" stroke-linejoin="round"/>
<path d="M77.3141 94.4648L65.9998 105.726L54.6855 94.4648" stroke="#144372" stroke-width="5" stroke-linecap="round" stroke-linejoin="round"/>
<path d="M94.2856 55.0518L105.6 66.938L94.2856 78.8243" stroke="#144372" stroke-width="5" stroke-linecap="round" stroke-linejoin="round"/>
<path d="M26.3999 66.3125H105.6" stroke="#144372" stroke-width="4" stroke-linecap="round" stroke-linejoin="round"/>
<path d="M66 26.9004V105.725" stroke="#144372" stroke-width="4" stroke-linecap="round" stroke-linejoin="round"/>
</svg>
