<svg width="100" height="100" viewBox="0 0 100 100" fill="none" xmlns="http://www.w3.org/2000/svg">
<path d="M44.6892 28.4216C44.2092 28.595 43.6958 28.7616 43.1492 28.9216C42.6025 29.0683 42.0358 29.2016 41.4492 29.3216L40.9092 26.8616C41.1092 26.835 41.3158 26.795 41.5292 26.7416C41.7425 26.6883 41.9558 26.6283 42.1692 26.5616C42.9158 26.3483 43.8625 26.0016 45.0092 25.5216L45.3492 25.3816H47.2492V39.1816H44.6892V28.4216Z" fill="#F5F6F7"/>
<circle cx="50" cy="50" r="50" fill="#143C6D"/>
<path d="M46.45 39.1C45.25 39.5333 43.9667 39.95 42.6 40.35C41.2333 40.7167 39.8167 41.05 38.35 41.35L37 35.2C37.5 35.1333 38.0167 35.0333 38.55 34.9C39.0833 34.7667 39.6167 34.6167 40.15 34.45C42.0167 33.9167 44.3833 33.05 47.25 31.85L48.1 31.5H52.85V66H46.45V39.1Z" fill="#F5F6F7"/>
</svg>
