<svg width="100" height="100" viewBox="0 0 100 100" fill="none" xmlns="http://www.w3.org/2000/svg">
<path d="M16.8 26.7L20.64 23.7C21.3067 23.18 21.8667 22.7133 22.32 22.3C22.7733 21.8867 23.1467 21.4333 23.44 20.94C23.7467 20.4467 23.9 19.94 23.9 19.42C23.9 18.8067 23.7067 18.3333 23.32 18C22.9467 17.6667 22.4067 17.5 21.7 17.5C21.1133 17.5 20.6333 17.62 20.26 17.86C19.9 18.0867 19.64 18.3933 19.48 18.78C19.3333 19.1667 19.2733 19.6 19.3 20.08L16.8 19.88C16.76 18.8933 16.9467 18.0333 17.36 17.3C17.7867 16.5667 18.3933 16 19.18 15.6C19.9667 15.2 20.8733 15 21.9 15C22.8867 15 23.7267 15.1867 24.42 15.56C25.1267 15.92 25.66 16.4333 26.02 17.1C26.3933 17.7533 26.58 18.52 26.58 19.4C26.58 20.2267 26.3867 20.9867 26 21.68C25.6133 22.36 25.06 23.02 24.34 23.66C23.6333 24.2867 22.6733 25.0267 21.46 25.88L20.58 26.5H27.06V29H16.8V26.7Z" fill="#F5F6F7"/>
<circle cx="50" cy="50" r="50" fill="#143C6D"/>
<path d="M37 62.25L46.6 54.75C48.2667 53.45 49.6667 52.2833 50.8 51.25C51.9333 50.2167 52.8667 49.0833 53.6 47.85C54.3667 46.6167 54.75 45.35 54.75 44.05C54.75 42.5167 54.2667 41.3333 53.3 40.5C52.3667 39.6667 51.0167 39.25 49.25 39.25C47.7833 39.25 46.5833 39.55 45.65 40.15C44.75 40.7167 44.1 41.4833 43.7 42.45C43.3333 43.4167 43.1833 44.5 43.25 45.7L37 45.2C36.9 42.7333 37.3667 40.5833 38.4 38.75C39.4667 36.9167 40.9833 35.5 42.95 34.5C44.9167 33.5 47.1833 33 49.75 33C52.2167 33 54.3167 33.4667 56.05 34.4C57.8167 35.3 59.15 36.5833 60.05 38.25C60.9833 39.8833 61.45 41.8 61.45 44C61.45 46.0667 60.9667 47.9667 60 49.7C59.0333 51.4 57.65 53.05 55.85 54.65C54.0833 56.2167 51.6833 58.0667 48.65 60.2L46.45 61.75H62.65V68H37V62.25Z" fill="#F5F6F7"/>
</svg>
