<svg width="100" height="100" viewBox="0 0 100 100" fill="none" xmlns="http://www.w3.org/2000/svg">
<path d="M21.7 29.22C20.5667 29.22 19.6 29.0133 18.8 28.6C18.0133 28.1867 17.44 27.5933 17.08 26.82C16.7333 26.0333 16.6467 25.1133 16.82 24.06H19.28C19.1867 24.6067 19.2 25.0867 19.32 25.5C19.4533 25.9 19.7133 26.2133 20.1 26.44C20.5 26.6667 21.0467 26.78 21.74 26.78C22.6333 26.78 23.2933 26.5933 23.72 26.22C24.1467 25.8467 24.36 25.3467 24.36 24.72C24.36 24.0533 24.08 23.5733 23.52 23.28C22.9733 22.9867 22.12 22.84 20.96 22.84C20.5067 22.84 19.9267 22.8733 19.22 22.94V20.62L22.46 17.7H21.22C20.2867 17.7 19.46 17.68 18.74 17.64C18.02 17.6 17.32 17.4933 16.64 17.32L17.02 14.82C17.5933 14.94 18.22 15.0333 18.9 15.1C19.5933 15.1667 20.3667 15.2 21.22 15.2H25.98V17.5L22.08 20.76C23.0667 20.76 23.92 20.9133 24.64 21.22C25.36 21.5267 25.9067 21.9733 26.28 22.56C26.6667 23.1333 26.86 23.8267 26.86 24.64C26.86 25.5467 26.6533 26.3467 26.24 27.04C25.8267 27.7333 25.2267 28.2733 24.44 28.66C23.6667 29.0333 22.7533 29.22 21.7 29.22Z" fill="#F5F6F7"/>
<circle cx="50" cy="50" r="50" fill="#143C6D"/>
<path d="M49.25 68.55C46.4167 68.55 44 68.0333 42 67C40.0333 65.9667 38.6 64.4833 37.7 62.55C36.8333 60.5833 36.6167 58.2833 37.05 55.65H43.2C42.9667 57.0167 43 58.2167 43.3 59.25C43.6333 60.25 44.2833 61.0333 45.25 61.6C46.25 62.1667 47.6167 62.45 49.35 62.45C51.5833 62.45 53.2333 61.9833 54.3 61.05C55.3667 60.1167 55.9 58.8667 55.9 57.3C55.9 55.6333 55.2 54.4333 53.8 53.7C52.4333 52.9667 50.3 52.6 47.4 52.6C46.2667 52.6 44.8167 52.6833 43.05 52.85V47.05L51.15 39.75H48.05C45.7167 39.75 43.65 39.7 41.85 39.6C40.05 39.5 38.3 39.2333 36.6 38.8L37.55 32.55C38.9833 32.85 40.55 33.0833 42.25 33.25C43.9833 33.4167 45.9167 33.5 48.05 33.5H59.95V39.25L50.2 47.4C52.6667 47.4 54.8 47.7833 56.6 48.55C58.4 49.3167 59.7667 50.4333 60.7 51.9C61.6667 53.3333 62.15 55.0667 62.15 57.1C62.15 59.3667 61.6333 61.3667 60.6 63.1C59.5667 64.8333 58.0667 66.1833 56.1 67.15C54.1667 68.0833 51.8833 68.55 49.25 68.55Z" fill="#F5F6F7"/>
</svg>
