<svg width="100" height="100" viewBox="0 0 100 100" fill="none" xmlns="http://www.w3.org/2000/svg">
<circle cx="50" cy="50" r="50" fill="#143C6D"/>
<path d="M49.75 68.55C46.7833 68.55 44.3333 67.9667 42.4 66.8C40.5 65.6 39.15 64.0833 38.35 62.25C37.55 60.3833 37.25 58.45 37.45 56.45H43.75C43.6167 57.6833 43.75 58.75 44.15 59.65C44.5833 60.55 45.2667 61.25 46.2 61.75C47.1667 62.2167 48.3667 62.45 49.8 62.45C51.1667 62.45 52.3333 62.2167 53.3 61.75C54.2667 61.2833 55 60.6167 55.5 59.75C56 58.85 56.25 57.7833 56.25 56.55C56.25 55.25 55.9667 54.15 55.4 53.25C54.8333 52.35 54.0667 51.6833 53.1 51.25C52.1333 50.7833 51.0333 50.55 49.8 50.55C48.6667 50.55 47.5833 50.7333 46.55 51.1C45.5167 51.4333 44.5667 51.9833 43.7 52.75H38.05L39.95 33.5H48.95C51.0833 33.5 53 33.4167 54.7 33.25C56.4333 33.0833 58.0167 32.85 59.45 32.55L60.4 38.8C58.7 39.2333 56.95 39.5 55.15 39.6C53.35 39.7 51.2833 39.75 48.95 39.75H45.2L44.45 46.2C46.35 45.1333 48.5667 44.6 51.1 44.6C53.1667 44.6 55.0667 45.0333 56.8 45.9C58.5667 46.7667 59.9667 48.05 61 49.75C62.0667 51.45 62.6 53.5167 62.6 55.95C62.6 58.15 62.1333 60.2167 61.2 62.15C60.2667 64.05 58.8333 65.6 56.9 66.8C54.9667 67.9667 52.5833 68.55 49.75 68.55Z" fill="#F5F6F7"/>
</svg>
