<?xml version="1.0" encoding="UTF-8"?>
<svg id="Layer_1" data-name="Layer 1" xmlns="http://www.w3.org/2000/svg" width="24.09" height="24.09" viewBox="0 0 24.09 24.09">
  <defs>
    <style>
      .cls-1 {
        fill: none;
        stroke: #fff;
        stroke-linecap: round;
        stroke-width: .5px;
      }

      .cls-2 {
        fill: #144473;
      }
    </style>
  </defs>
  <path class="cls-2" d="M24.09,12.26c-.12,6.65-5.6,11.95-12.26,11.84C5.18,23.98-.11,18.49,0,11.84.12,5.18,5.61-.11,12.26,0c6.65.12,11.95,5.6,11.84,12.26"/>
  <path class="cls-1" d="M1.49,7.18c.55-.76,1.1-.76,1.65,0s1.1.76,1.65,0,1.1-.76,1.65,0c.55.76,1.1.76,1.65,0s1.1-.76,1.65,0"/>
  <path class="cls-1" d="M.85,9.41c.59-.76,1.17-.76,1.76,0s1.17.76,1.76,0,1.17-.76,1.76,0c.59.76,1.17.76,1.76,0s1.17-.76,1.76,0"/>
  <path class="cls-1" d="M.54,11.44c.61-.76,1.22-.76,1.83,0s1.22.76,1.83,0,1.22-.76,1.83,0c.61.76,1.22.76,1.83,0s1.22-.76,1.83,0"/>
  <path class="cls-1" d="M.52,13.55c.61-.76,1.22-.76,1.83,0s1.22.76,1.83,0,1.22-.76,1.83,0c.61.76,1.22.76,1.83,0s1.22-.76,1.83,0"/>
  <path class="cls-1" d="M.98,15.71c.57-.76,1.13-.76,1.7,0s1.13.76,1.7,0,1.13-.76,1.7,0c.57.76,1.13.76,1.7,0s1.13-.76,1.7,0"/>
  <path class="cls-1" d="M1.73,17.8c.52-.76,1.03-.76,1.55,0s1.03.76,1.55,0,1.03-.76,1.55,0c.52.76,1.03.76,1.55,0s1.03-.76,1.55,0"/>
  <path class="cls-1" d="M14.34,7.12c.55-.76,1.09-.76,1.63,0s1.08.77,1.63,0c.55-.76,1.09-.76,1.63,0s1.08.77,1.63,0,1.09-.76,1.63,0"/>
  <path class="cls-1" d="M14.43,9.35c.58-.76,1.16-.76,1.73,0s1.15.77,1.73,0c.58-.76,1.16-.76,1.73,0s1.15.77,1.73,0,1.16-.76,1.73,0"/>
  <path class="cls-1" d="M14.38,11.38c.61-.76,1.21-.76,1.8,0s1.2.77,1.8,0c.61-.76,1.21-.76,1.8,0s1.2.77,1.8,0,1.21-.76,1.8,0"/>
  <path class="cls-1" d="M14.39,13.49c.61-.76,1.21-.76,1.8,0s1.2.77,1.8,0c.61-.76,1.21-.76,1.8,0s1.2.77,1.8,0,1.21-.76,1.8,0"/>
  <path class="cls-1" d="M14.55,15.66c.56-.76,1.12-.76,1.68,0s1.11.77,1.68,0c.56-.76,1.12-.76,1.68,0s1.11.77,1.68,0,1.12-.76,1.68,0"/>
  <path class="cls-1" d="M14.54,17.75c.51-.76,1.02-.76,1.53,0s1.01.77,1.53,0c.51-.76,1.02-.76,1.53,0s1.01.77,1.53,0,1.02-.76,1.53,0"/>
  <path class="cls-1" d="M11.95,17.2v3.06"/>
  <path class="cls-1" d="M11.99,12.87v3.06"/>
  <path class="cls-1" d="M11.99,8.73v3.06"/>
  <path class="cls-1" d="M11.99,4.75v3.06"/>
</svg>