<?xml version="1.0" encoding="UTF-8"?>
<svg id="Layer_1" data-name="Layer 1" xmlns="http://www.w3.org/2000/svg" width="24.09" height="24.09" viewBox="0 0 24.09 24.09">
  <defs>
    <style>
      .cls-1 {
        fill: #fff;
      }

      .cls-2 {
        fill: #144473;
      }
    </style>
  </defs>
  <path class="cls-2" d="M24.09,12.26c-.12,6.65-5.6,11.95-12.26,11.84C5.18,23.98-.11,18.49,0,11.84.12,5.18,5.61-.11,12.26,0c6.65.12,11.95,5.6,11.84,12.26"/>
  <g>
    <g>
      <path class="cls-1" d="M6.3,16.4h.23s.31,0,.31,0h.23s.31,0,.31,0h.23s.54,0,.54,0h0s.53,0,.53,0h0s0-6.49,0-6.49h0s-2.92,0-2.92,0h0s0,6.49,0,6.49h0s.54,0,.54,0ZM6.04,16.12v-5.94s.22,0,.22,0v5.94s-.22,0-.22,0ZM6.57,16.12v-5.94s.22,0,.22,0v5.94s-.22,0-.22,0ZM7.11,16.12v-5.94s.22,0,.22,0v5.94s-.22,0-.22,0ZM7.66,16.12v-5.94s.22,0,.22,0v5.94s-.22,0-.22,0ZM8.19,16.12v-5.94s.22,0,.22,0v5.94s-.22,0-.22,0Z"/>
      <path class="cls-1" d="M4.09,12.72c0,1.94.7,6.64.7,6.64.98.13,1.85.14,1.85.14l.21-1.12h.38s.37,0,.37,0l.21,1.12s.87,0,1.85-.14c0,0,.7-4.7.7-6.63,0-1.94.31-4.75-3.14-8.11h0c-3.45,3.36-3.14,6.17-3.14,8.11ZM5.09,9.17c.55-.74,1.51-.9,2.13-.9s1.58.17,2.13.91c.56.75.48,3.24.44,4.46-.04,1.22-.45,4.41-.45,4.41h-4.26s-.41-3.19-.44-4.41c-.04-1.22-.11-3.71.45-4.46Z"/>
    </g>
    <path class="cls-1" d="M12.08,12.32h3.47s-1.16-.96-1.16-.96c-.26-.22-.3-.61-.08-.87l.02-.03c.22-.26.61-.3.87-.08l2.49,2.07c.15.12.22.3.22.48,0,0,0,0,0,0v.03s0,.02,0,.03c0,.01,0,.02,0,.03,0,.01,0,.03,0,.04,0,0,0,.01,0,.02,0,.01,0,.03,0,.04,0,0,0,.01,0,.02,0,.01,0,.02-.01.03,0,0,0,.02,0,.03,0,0,0,.01,0,.02,0,.01-.01.02-.02.04,0,0,0,0,0,.01,0,.01-.02.03-.03.04,0,0,0,0,0,0-.03.05-.07.09-.12.13l-2.49,2.07c-.26.22-.65.18-.87-.08l-.02-.03c-.22-.26-.18-.65.08-.87l1.15-.95h-3.46c-.34,0-.62-.28-.62-.62v-.03c0-.34.28-.62.62-.62Z"/>
    <path class="cls-1" d="M19.52,4.68c.28,0,.5.2.5.45v13.91c0,.25-.22.45-.5.45s-.5-.2-.5-.45V5.13c0-.25.22-.45.5-.45Z"/>
  </g>
</svg>