<svg width="132" height="132" viewBox="0 0 132 132" fill="none" xmlns="http://www.w3.org/2000/svg">
<path d="M30.467 119.199L30.4669 119.199C-7.62231 93.8453 -7.4593 37.7315 30.7801 12.5946C73.2559 -15.3243 130 15.2249 130 66.0024C130 116.943 72.9156 147.458 30.467 119.199Z" fill="white" stroke="#143C6D" stroke-width="4" stroke-linecap="round" stroke-linejoin="round"/>
<path d="M32.3019 35.4876C35.5976 34.7786 90.7268 36.0288 99.7132 35.4876C102.751 36.4281 101.817 42.9625 100.468 43.388L33.8115 43.5746C29.5219 44.4702 30.0451 37.9731 30.7064 36.7117C30.8933 36.3497 31.8834 35.5809 32.3057 35.4876H32.3019Z" fill="#143C6D"/>
<path d="M35.6909 43.952L96.4175 44.0453L90.9584 101.967C90.4278 105.315 87.3526 108.729 83.8963 109.207C82.1252 109.453 49.8936 109.438 48.1187 109.207C45.4284 108.856 42.3569 106.625 41.434 104.035C40.3691 101.042 36.6325 52.3039 35.6909 43.9482V43.952Z" fill="#143C6D"/>
<path d="M79.5659 66.5178C79.9806 66.4096 80.0741 66.7865 80.4141 67.1746C81.4043 68.3054 84.1955 74.504 86.0638 75.8251C88.1749 77.7395 81.7293 84.6509 79.9433 87.2035H72.6009L72.2235 90.4017L67.6089 82.9716C67.9527 82.5611 72.1413 75.1235 72.5038 75.8251L72.5972 79.3032C75.0222 78.986 85.2641 80.4526 85.6826 76.9521C85.9629 74.6234 85.0923 77.8851 83.706 78.3627C83.1866 78.5419 79.9545 78.6799 79.5621 78.5493C79.1212 78.4038 74.2861 71.3879 74.1964 70.9326C73.905 69.4735 78.5906 67.5068 79.5621 66.5141L79.5659 66.5178Z" fill="#FDFEFF"/>
<path d="M55.4611 67.0819C55.8572 67.1117 56.2197 66.9475 56.4962 67.3655L60.2626 75.0755C60.229 75.9637 57.4116 73.0976 56.8736 73.5716C55.633 76.4749 48.9894 84.6813 53.6713 85.7971C53.8395 85.506 50.7381 84.6402 54.1421 79.8747L63.9319 79.6881C65.2696 89.973 63.8348 85.6366 53.3873 86.8346C51.0744 86.6629 46.3514 76.6951 46.7026 75.2696C46.811 74.8329 50.1104 69.9554 50.0917 69.627C50.0543 68.9627 47.775 68.3806 47.4537 67.7461C49.4939 67.9066 53.9553 66.9811 55.4574 67.0893L55.4611 67.0819Z" fill="#FDFEFF"/>
<path d="M61.2977 52.4117C63.0352 52.0535 69.3463 52.9193 71.8423 52.7887C72.5709 53.0051 75.1529 58.0058 75.9862 58.9947L78.811 57.3005C78.0674 58.7447 76.1169 65.3687 74.8577 65.574C67.2202 64.6485 64.4028 67.0443 69.3015 63.0363C66.6037 59.7038 63.8722 51.2213 60.2627 54.1956C63.805 53.5835 63.7041 55.8301 65.535 58.1439C64.7167 59.103 61.4958 66.1711 60.7335 66.1375C59.8106 65.1224 55.0651 63.3685 55.1772 62.0959C55.2258 61.566 59.8778 54.1694 60.3561 52.7887C60.7074 52.7439 61.2492 52.4229 61.2977 52.4117Z" fill="#FDFEFF"/>
<path d="M57.3442 23.2621C58.1811 23.1278 73.46 23.1017 74.2895 23.2621C77.4207 23.8704 75.799 28.3188 76.3595 28.7144C80.8359 29.2965 93.3123 28.0986 96.3202 28.901C99.2422 29.6809 101.854 34.3383 98.7677 35.107C95.5879 35.8982 41.7403 34.4987 33.2396 35.107C30.0224 33.8046 32.9257 29.8451 35.1228 29.0876C38.1494 28.0426 52.8565 29.2144 54.5193 28.7106C56.283 28.1733 53.5441 23.863 57.3442 23.2584V23.2621Z" fill="#143C6D"/>
<path d="M57.7217 25.5195H73.7254L73.8225 28.4341L57.7217 28.5274V25.5195Z" fill="#FDFEFF"/>
</svg>
