<svg width="132" height="132" viewBox="0 0 132 132" fill="none" xmlns="http://www.w3.org/2000/svg">
<path d="M30.467 119.199L30.4669 119.199C-7.62231 93.8453 -7.4593 37.7315 30.7801 12.5946C73.2559 -15.3243 130 15.2249 130 66.0024C130 116.943 72.9156 147.458 30.467 119.199Z" fill="white" stroke="#144372" stroke-width="4" stroke-linecap="round" stroke-linejoin="round"/>
<path d="M63.3909 26.4805C81.5411 25.1079 83.7 36.5463 93.9406 42.3609C94.5902 42.7421 94.6475 41.4267 94.8003 41.503C108.824 49.1477 103.054 64.2464 91.3613 65.9812C88.8776 66.3435 43.5211 66.3053 41.0183 65.9812C27.2623 64.1702 23.6322 47.0888 35.4204 39.7872C46.7308 32.7907 34.1403 42.6087 35.8598 53.5324C36.7577 46.2499 41.1329 34.7162 50.0552 36.7942C66.5815 18.8167 47.0174 38.7387 45.5463 35.2881C49.0617 31.094 58.1177 26.8808 63.41 26.4805H63.3909Z" fill="#143C6D"/>
<path d="M61.0052 71.3828L61.8146 71.6592C57.5774 80.8818 53.6021 90.2552 49.7459 99.6788L48.9365 98.8244C53.007 89.7023 56.6253 80.3541 61.0052 71.3828Z" fill="#143C6D"/>
<path d="M80.2329 71.3828L81.1318 71.656C64.3425 106.753 62.2273 106.231 80.2329 71.3828Z" fill="#143C6D"/>
<path d="M54.5524 71.4125C55.3754 71.2855 55.3269 71.5648 55.3753 72.2756C55.448 73.3671 47.2429 91.3905 46.662 92.279C42.9347 97.8637 51.2123 77.7587 54.5766 71.4125H54.5524Z" fill="#143C6D"/>
<path d="M74.0487 71.3828L64.3901 93.2479C65.3989 86.9387 70.7451 77.6665 74.0487 71.3828Z" fill="#143C6D"/>
<path d="M86.2827 71.3828L77.2681 93.2479C78.2095 86.9387 83.1994 77.6665 86.2827 71.3828Z" fill="#143C6D"/>
<path d="M68.0035 71.3828L68.8975 71.6669C55.4879 100.72 53.4896 100.255 68.0035 71.3828Z" fill="#143C6D"/>
<path d="M48.9364 71.3828L39.2778 92.6048C40.2866 86.4812 45.6328 77.4817 48.9364 71.3828Z" fill="#143C6D"/>
</svg>
