<svg width="132" height="132" viewBox="0 0 133 132" fill="none" xmlns="http://www.w3.org/2000/svg">
<path d="M62.2703 2.13755L62.2705 2.13753C108.426 -0.817615 142.924 44.4051 127.098 88.0633C118.833 110.865 95.7954 128.39 71.4821 129.875C25.6604 132.669 -8.52772 88.1141 6.65598 44.6672L6.65629 44.6663C14.6648 21.7154 37.879 3.69631 62.2703 2.13755Z" fill="white" stroke="#143C6D" stroke-width="4"/>
<path d="M49.057 21.2729C49.2234 21.2661 49.3932 21.2762 49.5596 21.2729C54.8859 29.4967 59.7727 38.0202 64.7428 46.4729V75.6637L39.1601 75.9196C38.6571 76.0038 38.0285 75.697 35.9743 76.0038C35.5142 75.9196 39.9142 75.9121 33.9428 75.9196V81.3274L37.2293 81.2641C32.6857 84.4553 34.433 84.4701 33.7073 85.5073V90.4274H64.6596C64.6596 96.3143 44.6285 93.5264 33.7073 94.4648V99.7591C39.9142 99.8467 40.5428 99.8467 42.7428 99.8467H64.6596L64.4931 111.216C62.842 111.957 39.5596 109.566 35.9743 108.502C33.2047 107.68 30.7346 105.083 30.3551 102.137C29.7759 97.6476 30.7912 72.131 30.3551 64.6313C47.6189 60.1793 41.3971 37.9427 38.4044 25.2635C39.9657 24.9032 48.4877 21.2998 49.057 21.2729Z" fill="#144372"/>
<path d="M33.4157 81.3271H64.6377L64.743 84.8543L33.8247 85.0807L33.3145 84.7053L33.4157 81.3271Z" fill="#144372"/>
<path d="M34.0421 90.7109H64.6397L64.7429 94.4645H34.4429L33.9429 94.0891L34.0421 90.7109Z" fill="#144372"/>
<path d="M52.7998 23.7739L65.8638 36.2608L78.4193 23.7739C79.2274 23.6946 76.5944 26.9617 75.6214 28.5176C72.3217 33.7866 69.3116 39.2339 65.8638 44.417L52.7998 23.7739Z" fill="#144372"/>
<path d="M82.3256 21.2705L93.6269 25.2634C90.8298 38.0277 84.4085 60.3257 101.829 64.8615C101.131 71.5117 102.197 99.6405 101.663 102.588C101.191 105.185 98.633 107.835 96.2213 108.621C91.7533 110.078 73.3132 111.528 67.4267 111.339V99.9541L98.4802 99.6978L98.3972 94.8551L67.3437 94.5988L67.4267 90.606H98.0617L98.4802 90.1811L98.2278 85.3384L67.3404 85.2541L67.2573 81.2612H98.0583L98.4769 80.8363L98.2244 75.9936L67.3371 75.9093V46.3372L82.3256 21.2705Z" fill="#144372"/>
<path d="M72.3522 50.8255C73.0165 50.603 85.6273 50.6419 86.2985 50.8255C87.7551 51.2246 87.7586 55.7415 86.1256 56.1652C85.4647 56.3348 73.1791 56.363 72.5252 56.1652C71.3592 55.8121 71.4354 51.1327 72.3522 50.8255Z" fill="#F1F2F2"/>
<path d="M73.6451 52.1604C74.1166 51.7908 84.6623 51.9042 85.1902 52.1604C85.5057 52.3142 85.5289 53.6977 85.4426 53.9137C85.2035 54.5066 74.1265 54.5652 73.6451 54.1919C73.5089 54.0857 73.5089 52.2702 73.6451 52.1641V52.1604Z" fill="#144372"/>
</svg>
