<svg width="100" height="100" viewBox="0 0 100 100" fill="none" xmlns="http://www.w3.org/2000/svg">
<path d="M91.6667 70.5001V83.0001C91.6714 84.1605 91.4337 85.3091 90.9688 86.3724C90.504 87.4356 89.8221 88.39 88.967 89.1745C88.1119 89.959 87.1024 90.5563 86.0032 90.928C84.9039 91.2998 83.7391 91.4379 82.5834 91.3334C69.7619 89.9403 57.4459 85.559 46.625 78.5418C36.5577 72.1445 28.0223 63.6091 21.625 53.5418C14.5833 42.6718 10.2011 30.2959 8.83338 17.4167C8.72926 16.2645 8.86619 15.1032 9.23547 14.0068C9.60474 12.9104 10.1983 11.903 10.9782 11.0485C11.7582 10.194 12.7076 9.51137 13.7658 9.04392C14.8241 8.57647 15.9681 8.3345 17.125 8.33341H29.625C31.6472 8.31351 33.6075 9.02957 35.1407 10.3481C36.6739 11.6667 37.6754 13.4978 37.9584 15.5001C38.486 19.5004 39.4644 23.4281 40.875 27.2084C41.4356 28.6998 41.557 30.3206 41.2247 31.8787C40.8923 33.4369 40.1203 34.8672 39 36.0001L33.7084 41.2917C39.6399 51.7232 48.2769 60.3603 58.7084 66.2918L64 61.0001C65.1329 59.8798 66.5632 59.1078 68.1214 58.7755C69.6796 58.4432 71.3004 58.5645 72.7917 59.1251C76.572 60.5357 80.4998 61.5142 84.5 62.0418C86.5241 62.3273 88.3726 63.3468 89.6939 64.9063C91.0153 66.4658 91.7174 68.4566 91.6667 70.5001Z" stroke="#92BBDB" stroke-width="6" stroke-linecap="round" stroke-linejoin="round"/>
</svg>
