<svg width="148" height="34" viewBox="0 0 148 34" fill="none" xmlns="http://www.w3.org/2000/svg">
<path d="M21.5869 24.8014V15.5069H11.1538C10.5576 15.5069 10.0781 15.9506 10.0781 16.5023V17.7016C10.0781 18.2533 10.5576 18.697 11.1538 18.697H17.3229V24.8014C17.3229 27.8116 15.3141 30.8578 10.8427 30.8578C6.79908 30.8578 4.28475 28.5312 4.28475 24.8014V9.65432C4.28475 5.6127 6.78612 3.20212 10.9723 3.20212C15.988 3.20212 16.986 6.74004 17.1026 10.134C17.1156 10.4938 17.4266 10.7817 17.8154 10.7817H20.6538C21.0555 10.7817 21.3925 10.4698 21.3796 10.0981C21.1203 3.03422 17.971 0 10.9594 0C3.94778 0 0.0078125 3.44198 0.0078125 9.19859V24.8014C0.0078125 30.558 4.05147 34 10.8298 34C18.7615 34 21.5869 29.2508 21.5869 24.8014ZM1.26497 24.8014V9.19859C1.26497 4.10159 4.97166 0.93545 10.9594 0.93545C16.9471 0.93545 20.2002 4.08959 20.2002 9.79824C20.2002 9.79824 20.2131 10.0381 19.8891 10.0381H18.606C18.3339 10.0381 18.3598 9.79824 18.3598 9.79824C18.3598 6.97989 17.4007 2.25467 10.9594 2.25467C3.85706 2.25467 3.09239 7.42363 3.09239 9.64233V24.7894C3.09239 29.1309 5.98257 31.7213 10.8298 31.7213C16.5453 31.7213 18.5671 27.9795 18.5671 24.7894V17.7496H11.8536C11.5296 17.7496 11.2575 17.4977 11.2575 17.1979V16.982C11.2575 16.6822 11.5296 16.4303 11.8536 16.4303H20.4075V24.7894C20.4075 29.8384 16.649 33.1005 10.8427 33.1005C5.03646 33.1005 1.26497 29.9224 1.26497 24.8014Z" fill="#343334"/>
<path d="M44.7224 24.5014V9.75008C44.7224 6.96772 43.7245 2.31445 37.0499 2.31445C29.8698 2.31445 29.3125 7.96313 29.3125 9.70211V24.3455C29.3125 27.0919 30.3234 31.6852 37.0499 31.6852C43.3875 31.6852 44.7224 27.7755 44.7224 24.5014ZM30.5049 24.3455V9.70211C30.5049 5.66049 32.9544 3.2499 37.0628 3.2499C41.1713 3.2499 43.4782 5.56454 43.4782 9.75008V24.5014C43.4782 28.627 41.2491 30.8097 37.0628 30.8097C32.8766 30.8097 30.5049 28.4591 30.5049 24.3455Z" fill="#343334"/>
<path d="M47.8174 24.7534V9.24656C47.8174 3.45397 43.7867 0 37.0602 0C29.0766 0 26.2383 4.77319 26.2383 9.24656V24.7534C26.2383 30.63 30.1783 34 37.0602 34C46.4177 34 47.8174 28.2074 47.8174 24.7534ZM27.4825 24.7534V9.24656C27.4825 4.13757 31.241 0.839506 37.0602 0.839506C44.0718 0.839506 46.5602 5.19295 46.5602 9.24656V24.7534C46.5602 30.1503 43.1905 33.1125 37.0602 33.1125C30.93 33.1125 27.4825 29.9824 27.4825 24.7534Z" fill="#343334"/>
<path d="M56.4648 17.7617V31.3857H62.2582C67.5849 31.3857 69.8659 29.3589 69.8659 24.5977C69.8659 19.8365 67.3775 17.7617 61.7916 17.7617H56.4648ZM68.6088 24.5977C68.6088 27.3441 67.883 30.4982 62.2582 30.4982H57.6572V18.6852H61.7916C66.4444 18.6852 68.6088 20.5681 68.6088 24.5857" fill="#343334"/>
<path d="M60.638 0.34793H54.1578C53.7171 0.34793 53.3672 0.67174 53.3672 1.0795V32.489C53.3672 33.1606 53.9504 33.7003 54.6762 33.7003H62.4524C69.7492 33.7003 73.0022 30.894 73.0022 24.5977C73.0022 22.1271 72.2764 18.7811 68.8419 16.9582L68.505 16.7783L68.816 16.5864C71.1619 15.1232 72.2635 12.8446 72.2635 9.43858C72.2635 3.31019 68.4531 0.335938 60.638 0.335938M66.0814 16.9222C70.9934 18.1095 71.758 22.1871 71.758 24.5977C71.758 30.1624 68.8031 32.7649 62.4524 32.7649H55.1687C54.8317 32.7649 54.5595 32.513 54.5595 32.2012V1.63118C54.5595 1.4153 54.754 1.2474 54.9743 1.2474H60.638C67.6237 1.2474 71.0193 3.93382 71.0193 9.46257C71.0193 13.2523 69.3992 15.6989 66.0814 16.9342" fill="#343334"/>
<path d="M60.7807 2.60254H56.4648V16.4304H61.2472C66.5221 16.4304 69.192 14.0798 69.192 9.43852C69.192 4.79725 66.3666 2.60254 60.7807 2.60254ZM61.2472 15.495H57.6442V3.49002H60.7807C65.4594 3.49002 67.9348 5.5528 67.9348 9.43852C67.9348 13.3242 65.6279 15.495 61.2472 15.495Z" fill="#343334"/>
<path d="M81.543 9.70238V24.3458C81.543 27.0921 82.5539 31.6854 89.2803 31.6854C95.6309 31.6854 96.9529 27.7757 96.9529 24.5017V9.75035C96.9529 6.96799 95.955 2.30273 89.2803 2.30273C82.1003 2.30273 81.543 7.9634 81.543 9.70238ZM95.7087 9.75035V24.5017C95.7087 28.6272 93.4925 30.798 89.2933 30.798C85.0941 30.798 82.7483 28.4474 82.7483 24.3458V9.70238C82.7483 5.66076 85.1978 3.25018 89.2933 3.25018C93.3888 3.25018 95.7087 5.56482 95.7087 9.75035Z" fill="#343334"/>
<path d="M89.279 0C81.2954 0 78.457 4.77319 78.457 9.24656V24.7534C78.457 30.63 82.397 34 89.279 34C98.6364 34 100.036 28.2074 100.036 24.7534V9.24656C100.036 3.45397 96.0184 0 89.279 0ZM98.7919 24.7534C98.7919 30.1383 95.4222 33.1125 89.2919 33.1125C83.1617 33.1125 79.7272 29.9944 79.7272 24.7534V9.24656C79.7272 4.13757 83.4857 0.839506 89.2919 0.839506C96.3035 0.839506 98.7919 5.18095 98.7919 9.24656V24.7534Z" fill="#343334"/>
<path d="M108.514 33.0765L111.353 23.9858H120.438L123.043 32.9445C123.16 33.3643 123.574 33.6641 124.054 33.6641H126.115C126.879 33.6641 127.437 32.9925 127.229 32.3089L117.729 1.04331C117.6 0.623554 117.185 0.32373 116.705 0.32373H114.93C114.45 0.32373 114.035 0.611561 113.906 1.04331L104.263 32.6207C104.108 33.1484 104.523 33.6641 105.119 33.6641H107.672C108.061 33.6641 108.411 33.4243 108.527 33.0765H108.514ZM115.461 1.21121H116.161C116.381 1.21121 116.563 1.34313 116.628 1.53502L126.037 32.4288C126.076 32.5728 125.959 32.7287 125.791 32.7287H124.624C124.417 32.7287 124.222 32.5967 124.171 32.4049L121.384 23.0983H110.212L107.439 32.3569C107.374 32.5728 107.154 32.7287 106.92 32.7287H105.883C105.65 32.7287 105.482 32.5248 105.546 32.3209L114.995 1.53502C115.059 1.34313 115.241 1.21121 115.461 1.21121Z" fill="#343334"/>
<path d="M115.616 5.48083L110.652 21.7313H121.008L116.044 5.48083C115.979 5.28894 115.694 5.28894 115.629 5.48083H115.616ZM115.824 8.80288L119.427 20.8438H112.208L115.824 8.80288Z" fill="#343334"/>
<path d="M137.18 33.6163H139.5C140.032 33.6163 140.472 33.2085 140.472 32.7168V3.466H147.341C147.691 3.466 147.989 3.20216 147.989 2.86636V0.875526C147.989 0.551717 147.704 0.275879 147.341 0.275879H129.339C128.977 0.275879 128.691 0.539724 128.691 0.875526V2.86636C128.691 3.20216 128.977 3.466 129.339 3.466H136.208V32.7168C136.208 33.2085 136.649 33.6163 137.18 33.6163ZM129.949 2.21874V1.57112C129.949 1.36724 130.117 1.21133 130.337 1.21133H146.382C146.616 1.21133 146.797 1.39122 146.797 1.5951V2.18276C146.797 2.39863 146.603 2.56653 146.382 2.56653H139.293V32.2371C139.293 32.5009 139.06 32.7168 138.775 32.7168H137.893C137.608 32.7168 137.375 32.5009 137.375 32.2371V2.57852H130.324C130.104 2.57852 129.936 2.42262 129.936 2.21874H129.949Z" fill="#343334"/>
</svg>
