<svg width="455" height="113" viewBox="0 0 455 113" fill="none" xmlns="http://www.w3.org/2000/svg">
<path d="M66.3685 82.4282V51.5376H34.2937C32.4608 51.5376 30.9866 53.0123 30.9866 54.8459V58.8317C30.9866 60.6653 32.4608 62.14 34.2937 62.14H53.2597V82.4282C53.2597 92.4328 47.0838 102.557 33.3374 102.557C20.9059 102.557 13.176 94.8243 13.176 82.4282V32.0864C13.176 18.654 20.866 10.6423 33.7358 10.6423C49.1557 10.6423 52.2237 22.4007 52.5823 33.6808C52.6221 34.8765 53.5784 35.8332 54.7738 35.8332H63.4997C64.7349 35.8332 65.7709 34.7968 65.731 33.5612C64.9341 10.0843 55.2519 0 33.696 0C12.1401 0 0.0273438 11.4395 0.0273438 30.5718V82.4282C0.0273438 101.56 12.4588 113 33.2975 113C57.6824 113 66.3685 97.2159 66.3685 82.4282ZM3.89227 82.4282V30.5718C3.89227 13.6317 15.2878 3.10899 33.696 3.10899C52.1042 3.10899 62.1052 13.5919 62.1052 32.5647C62.1052 32.5647 62.145 33.3619 61.1489 33.3619H57.2043C56.3675 33.3619 56.4472 32.5647 56.4472 32.5647C56.4472 23.1979 53.4987 7.49347 33.696 7.49347C11.8612 7.49347 9.51035 24.6727 9.51035 32.0466V82.3884C9.51035 96.8173 18.3957 105.427 33.2975 105.427C50.869 105.427 57.0847 92.9908 57.0847 82.3884V58.9912H36.4453C35.4492 58.9912 34.6124 58.1541 34.6124 57.1577V56.4402C34.6124 55.4437 35.4492 54.6067 36.4453 54.6067H62.7427V82.3884C62.7427 99.169 51.1877 110.011 33.3374 110.011C15.487 110.011 3.89227 99.448 3.89227 82.4282Z" fill="#343334"/>
<path d="M137.491 81.4314V32.4049C137.491 23.1576 134.423 7.69238 113.903 7.69238C91.829 7.69238 90.1157 26.4659 90.1157 32.2455V80.9132C90.1157 90.0409 93.2236 105.307 113.903 105.307C133.387 105.307 137.491 92.3128 137.491 81.4314ZM93.7814 80.9132V32.2455C93.7814 18.813 101.312 10.8014 113.943 10.8014C126.573 10.8014 133.666 18.4941 133.666 32.4049V81.4314C133.666 95.1428 126.813 102.397 113.943 102.397C101.073 102.397 93.7814 94.5848 93.7814 80.9132Z" fill="#343334"/>
<path d="M147.014 82.2688V30.7312C147.014 11.4794 134.622 0 113.943 0C89.3988 0 80.6729 15.8638 80.6729 30.7312V82.2688C80.6729 101.8 92.7856 113 113.943 113C142.711 113 147.014 93.7481 147.014 82.2688ZM84.4979 82.2688V30.7312C84.4979 13.7513 96.0528 2.79012 113.943 2.79012C135.499 2.79012 143.149 17.2589 143.149 30.7312V82.2688C143.149 100.205 132.79 110.05 113.943 110.05C95.0966 110.05 84.4979 99.6473 84.4979 82.2688Z" fill="#343334"/>
<path d="M173.59 59.0312V104.311H191.401C207.777 104.311 214.79 97.5748 214.79 81.7508C214.79 65.9268 207.139 59.0312 189.966 59.0312H173.59ZM210.925 81.7508C210.925 90.8785 208.693 101.361 191.401 101.361H177.256V62.1004H189.966C204.271 62.1004 210.925 68.3582 210.925 81.711" fill="#343334"/>
<path d="M186.42 1.15607H166.498C165.143 1.15607 164.067 2.23226 164.067 3.58746V107.978C164.067 110.21 165.86 112.004 168.092 112.004H191.998C214.431 112.004 224.432 102.677 224.432 81.7508C224.432 73.5398 222.201 62.4192 211.642 56.3607L210.606 55.7628L211.562 55.125C218.774 50.2622 222.161 42.6891 222.161 31.3691C222.161 11.0012 210.446 1.11621 186.42 1.11621M203.155 56.2411C218.256 60.1871 220.607 73.7391 220.607 81.7508C220.607 100.245 211.522 108.895 191.998 108.895H169.606C168.57 108.895 167.733 108.058 167.733 107.021V5.42097C167.733 4.70351 168.331 4.14549 169.008 4.14549H186.42C207.896 4.14549 218.336 13.0739 218.336 31.4488C218.336 44.0443 213.355 52.1755 203.155 56.2809" fill="#343334"/>
<path d="M186.859 8.64941H173.59V54.6067H188.293C204.51 54.6067 212.718 46.7944 212.718 31.369C212.718 15.9436 204.032 8.64941 186.859 8.64941ZM188.293 51.4977H177.216V11.599H186.859C201.242 11.599 208.853 18.4547 208.853 31.369C208.853 44.2833 201.76 51.4977 188.293 51.4977Z" fill="#343334"/>
<path d="M250.689 32.2463V80.914C250.689 90.0417 253.797 105.308 274.477 105.308C294 105.308 298.065 92.3136 298.065 81.4322V32.4057C298.065 23.1584 294.997 7.65332 274.477 7.65332C252.403 7.65332 250.689 26.4667 250.689 32.2463ZM294.24 32.4057V81.4322C294.24 95.1436 287.426 102.358 274.516 102.358C261.607 102.358 254.395 94.5457 254.395 80.914V32.2463C254.395 18.8138 261.926 10.8022 274.516 10.8022C287.107 10.8022 294.24 18.4949 294.24 32.4057Z" fill="#343334"/>
<path d="M274.477 0C249.932 0 241.207 15.8638 241.207 30.7312V82.2688C241.207 101.8 253.319 113 274.477 113C303.244 113 307.548 93.7481 307.548 82.2688V30.7312C307.548 11.4794 295.196 0 274.477 0ZM303.723 82.2688C303.723 100.165 293.363 110.05 274.517 110.05C255.67 110.05 245.111 99.6871 245.111 82.2688V30.7312C245.111 13.7513 256.666 2.79012 274.517 2.79012C296.072 2.79012 303.723 17.219 303.723 30.7312V82.2688Z" fill="#343334"/>
<path d="M333.606 109.931L342.332 79.7178H370.263L378.272 109.492C378.63 110.887 379.905 111.884 381.38 111.884H387.715C390.066 111.884 391.779 109.652 391.142 107.38L361.936 3.46771C361.537 2.07264 360.262 1.07617 358.788 1.07617H353.329C351.855 1.07617 350.58 2.03279 350.181 3.46771L320.537 108.416C320.059 110.17 321.334 111.884 323.167 111.884H331.016C332.212 111.884 333.287 111.087 333.646 109.931H333.606ZM354.963 4.02573H357.114C357.792 4.02573 358.35 4.46418 358.549 5.10192L387.476 107.778C387.595 108.257 387.237 108.775 386.719 108.775H383.133C382.495 108.775 381.898 108.336 381.738 107.699L373.172 76.7682H338.826L330.299 107.539C330.1 108.257 329.422 108.775 328.705 108.775H325.518C324.8 108.775 324.282 108.097 324.482 107.42L353.528 5.10192C353.728 4.46418 354.285 4.02573 354.963 4.02573Z" fill="#343334"/>
<path d="M355.441 18.2156L340.181 72.2244H372.016L356.756 18.2156C356.557 17.5779 355.68 17.5779 355.481 18.2156H355.441ZM356.079 29.2565L367.155 69.2749H344.962L356.079 29.2565Z" fill="#343334"/>
<path d="M421.742 111.725H428.874C430.508 111.725 431.863 110.37 431.863 108.735V11.5195H452.98C454.056 11.5195 454.973 10.6426 454.973 9.52652V2.90994C454.973 1.83375 454.096 0.916992 452.98 0.916992H397.636C396.521 0.916992 395.644 1.79389 395.644 2.90994V9.52652C395.644 10.6426 396.521 11.5195 397.636 11.5195H418.754V108.735C418.754 110.37 420.109 111.725 421.742 111.725ZM399.509 7.37414V5.22175C399.509 4.54415 400.027 4.02599 400.704 4.02599H450.032C450.749 4.02599 451.307 4.62387 451.307 5.30147V7.25456C451.307 7.97202 450.709 8.53004 450.032 8.53004H428.237V107.141C428.237 108.018 427.52 108.735 426.643 108.735H423.934C423.057 108.735 422.34 108.018 422.34 107.141V8.5699H400.664C399.987 8.5699 399.469 8.05174 399.469 7.37414H399.509Z" fill="#343334"/>
</svg>
