<svg width="455" height="105" viewBox="0 0 455 105" fill="none" xmlns="http://www.w3.org/2000/svg">
<g clip-path="url(#clip0_21_2316)">
<path d="M66.3685 76.5926V47.8889H34.2937C32.4608 47.8889 30.9866 49.2593 30.9866 50.963V54.6667C30.9866 56.3704 32.4608 57.7407 34.2937 57.7407H53.2597V76.5926C53.2597 85.8889 47.0838 95.2963 33.3374 95.2963C20.9059 95.2963 13.176 88.1111 13.176 76.5926V29.8148C13.176 17.3333 20.866 9.88889 33.7358 9.88889C49.1557 9.88889 52.2237 20.8148 52.5823 31.2963C52.6221 32.4074 53.5784 33.2963 54.7738 33.2963H63.4997C64.7349 33.2963 65.7709 32.3333 65.731 31.1852C64.9341 9.37037 55.2519 0 33.696 0C12.1401 0 0.0273438 10.6296 0.0273438 28.4074V76.5926C0.0273438 94.3704 12.4588 105 33.2975 105C57.6824 105 66.3685 90.3333 66.3685 76.5926ZM3.89227 76.5926V28.4074C3.89227 12.6667 15.2878 2.88889 33.696 2.88889C52.1042 2.88889 62.1052 12.6296 62.1052 30.2593C62.1052 30.2593 62.145 31 61.1489 31H57.2043C56.3675 31 56.4472 30.2593 56.4472 30.2593C56.4472 21.5556 53.4987 6.96296 33.696 6.96296C11.8612 6.96296 9.51035 22.9259 9.51035 29.7778V76.5556C9.51035 89.963 18.3957 97.963 33.2975 97.963C50.869 97.963 57.0847 86.4074 57.0847 76.5556V54.8148H36.4453C35.4492 54.8148 34.6124 54.037 34.6124 53.1111V52.4444C34.6124 51.5185 35.4492 50.7407 36.4453 50.7407H62.7427V76.5556C62.7427 92.1481 51.1877 102.222 33.3374 102.222C15.487 102.222 3.89227 92.4074 3.89227 76.5926Z" fill="white"/>
<path d="M137.491 75.667V30.1114C137.491 21.5188 134.423 7.14844 113.903 7.14844C91.829 7.14844 90.1157 24.5929 90.1157 29.9633V75.1855C90.1157 83.667 93.2236 97.8521 113.903 97.8521C133.387 97.8521 137.491 85.7781 137.491 75.667ZM93.7814 75.1855V29.9633C93.7814 17.4818 101.312 10.0373 113.943 10.0373C126.573 10.0373 133.666 17.1855 133.666 30.1114V75.667C133.666 88.4077 126.813 95.1484 113.943 95.1484C101.073 95.1484 93.7814 87.8892 93.7814 75.1855Z" fill="white"/>
<path d="M147.014 76.4444V28.5556C147.014 10.6667 134.622 0 113.943 0C89.3988 0 80.6729 14.7407 80.6729 28.5556V76.4444C80.6729 94.5926 92.7856 105 113.943 105C142.711 105 147.014 87.1111 147.014 76.4444ZM84.4979 76.4444V28.5556C84.4979 12.7778 96.0528 2.59259 113.943 2.59259C135.499 2.59259 143.149 16.037 143.149 28.5556V76.4444C143.149 93.1111 132.79 102.259 113.943 102.259C95.0966 102.259 84.4979 92.5926 84.4979 76.4444Z" fill="white"/>
<path d="M173.59 54.8516V96.9256H191.401C207.777 96.9256 214.79 90.6664 214.79 75.9627C214.79 61.259 207.139 54.8516 189.966 54.8516H173.59ZM210.925 75.9627C210.925 84.4442 208.693 94.1849 191.401 94.1849H177.256V57.7034H189.966C204.271 57.7034 210.925 63.5182 210.925 75.9256" fill="white"/>
<path d="M186.42 1.07415H166.498C165.143 1.07415 164.067 2.07415 164.067 3.33341V100.333C164.067 102.407 165.86 104.074 168.092 104.074H191.998C214.431 104.074 224.432 95.4075 224.432 75.963C224.432 68.3334 222.201 58.0001 211.642 52.3704L210.606 51.8149L211.562 51.2223C218.774 46.7038 222.161 39.6667 222.161 29.1482C222.161 10.2223 210.446 1.03711 186.42 1.03711M203.155 52.2593C218.256 55.926 220.607 68.5186 220.607 75.963C220.607 93.1482 211.522 101.185 191.998 101.185H169.606C168.57 101.185 167.733 100.407 167.733 99.4445V5.03711C167.733 4.37044 168.331 3.85192 169.008 3.85192H186.42C207.896 3.85192 218.336 12.1482 218.336 29.2223C218.336 40.926 213.355 48.4816 203.155 52.2964" fill="white"/>
<path d="M186.859 8.03711H173.59V50.7408H188.293C204.51 50.7408 212.718 43.4816 212.718 29.1482C212.718 14.8149 204.032 8.03711 186.859 8.03711ZM188.293 47.8519H177.216V10.7779H186.859C201.242 10.7779 208.853 17.1482 208.853 29.1482C208.853 41.1482 201.76 47.8519 188.293 47.8519Z" fill="white"/>
<path d="M250.689 29.9632V75.1854C250.689 83.6669 253.797 97.8521 274.477 97.8521C294 97.8521 298.065 85.778 298.065 75.6669V30.1113C298.065 21.5187 294.997 7.11133 274.477 7.11133C252.403 7.11133 250.689 24.5928 250.689 29.9632ZM294.24 30.1113V75.6669C294.24 88.4076 287.426 95.1113 274.516 95.1113C261.607 95.1113 254.395 87.8521 254.395 75.1854V29.9632C254.395 17.4817 261.926 10.0373 274.516 10.0373C287.107 10.0373 294.24 17.1854 294.24 30.1113Z" fill="white"/>
<path d="M274.477 0C249.932 0 241.207 14.7407 241.207 28.5556V76.4444C241.207 94.5926 253.319 105 274.477 105C303.244 105 307.548 87.1111 307.548 76.4444V28.5556C307.548 10.6667 295.196 0 274.477 0ZM303.723 76.4444C303.723 93.0741 293.363 102.259 274.517 102.259C255.67 102.259 245.111 92.6296 245.111 76.4444V28.5556C245.111 12.7778 256.666 2.59259 274.517 2.59259C296.072 2.59259 303.723 16 303.723 28.5556V76.4444Z" fill="white"/>
<path d="M333.606 102.148L342.332 74.0741H370.263L378.272 101.741C378.63 103.037 379.905 103.963 381.38 103.963H387.715C390.066 103.963 391.779 101.889 391.142 99.7778L361.936 3.22222C361.537 1.92593 360.262 1 358.788 1H353.329C351.855 1 350.58 1.88889 350.181 3.22222L320.537 100.741C320.059 102.37 321.334 103.963 323.167 103.963H331.016C332.212 103.963 333.287 103.222 333.646 102.148H333.606ZM354.963 3.74074H357.114C357.792 3.74074 358.35 4.14815 358.549 4.74074L387.476 100.148C387.595 100.593 387.237 101.074 386.719 101.074H383.133C382.495 101.074 381.898 100.667 381.738 100.074L373.172 71.3333H338.826L330.299 99.9259C330.1 100.593 329.422 101.074 328.705 101.074H325.518C324.8 101.074 324.282 100.444 324.482 99.8148L353.528 4.74074C353.728 4.14815 354.285 3.74074 354.963 3.74074Z" fill="white"/>
<path d="M355.441 16.9259L340.181 67.1111H372.016L356.756 16.9259C356.557 16.3333 355.68 16.3333 355.481 16.9259H355.441ZM356.079 27.1851L367.155 64.3703H344.962L356.079 27.1851Z" fill="white"/>
<path d="M421.742 103.815H428.874C430.508 103.815 431.863 102.555 431.863 101.037V10.7034H452.98C454.056 10.7034 454.973 9.8886 454.973 8.85156V2.70341C454.973 1.70341 454.096 0.851562 452.98 0.851562H397.636C396.521 0.851562 395.644 1.66638 395.644 2.70341V8.85156C395.644 9.8886 396.521 10.7034 397.636 10.7034H418.754V101.037C418.754 102.555 420.109 103.815 421.742 103.815ZM399.509 6.85156V4.85156C399.509 4.22193 400.027 3.74045 400.704 3.74045H450.032C450.749 3.74045 451.307 4.29601 451.307 4.92564V6.74045C451.307 7.40712 450.709 7.92564 450.032 7.92564H428.237V99.5553C428.237 100.37 427.52 101.037 426.643 101.037H423.934C423.057 101.037 422.34 100.37 422.34 99.5553V7.96267H400.664C399.987 7.96267 399.469 7.48119 399.469 6.85156H399.509Z" fill="white"/>
</g>
<defs>
<clipPath id="clip0_21_2316">
<rect width="455" height="105" fill="white"/>
</clipPath>
</defs>
</svg>
