<svg width="100" height="100" viewBox="0 0 100 100" fill="none" xmlns="http://www.w3.org/2000/svg">
<path d="M87.5 41.667C87.5 70.8337 50 95.8337 50 95.8337C50 95.8337 12.5 70.8337 12.5 41.667C12.5 31.7214 16.4509 22.1831 23.4835 15.1505C30.5161 8.11787 40.0544 4.16699 50 4.16699C59.9456 4.16699 69.4839 8.11787 76.5165 15.1505C83.5491 22.1831 87.5 31.7214 87.5 41.667Z" stroke="#143C6D" stroke-width="6" stroke-linecap="round" stroke-linejoin="round"/>
<path d="M50 54.167C56.9036 54.167 62.5 48.5706 62.5 41.667C62.5 34.7634 56.9036 29.167 50 29.167C43.0964 29.167 37.5 34.7634 37.5 41.667C37.5 48.5706 43.0964 54.167 50 54.167Z" stroke="#143C6D" stroke-width="6" stroke-linecap="round" stroke-linejoin="round"/>
</svg>
