<svg width="100" height="100" viewBox="0 0 100 100" fill="none" xmlns="http://www.w3.org/2000/svg">
<path d="M50 62.5C56.9036 62.5 62.5 56.9036 62.5 50C62.5 43.0964 56.9036 37.5 50 37.5C43.0964 37.5 37.5 43.0964 37.5 50C37.5 56.9036 43.0964 62.5 50 62.5Z" stroke="#143C6D" stroke-width="6" stroke-linecap="round" stroke-linejoin="round"/>
<path d="M80.8334 62.5003C80.2788 63.7571 80.1133 65.1511 80.3584 66.5028C80.6035 67.8544 81.2478 69.1017 82.2084 70.0837L82.4584 70.3337C83.2332 71.1076 83.8479 72.0267 84.2672 73.0383C84.6866 74.05 84.9025 75.1344 84.9025 76.2295C84.9025 77.3246 84.6866 78.409 84.2672 79.4207C83.8479 80.4323 83.2332 81.3514 82.4584 82.1253C81.6845 82.9001 80.7654 83.5148 79.7537 83.9342C78.7421 84.3535 77.6577 84.5694 76.5626 84.5694C75.4674 84.5694 74.3831 84.3535 73.3714 83.9342C72.3598 83.5148 71.4407 82.9001 70.6667 82.1253L70.4167 81.8753C69.4347 80.9148 68.1875 80.2704 66.8359 80.0253C65.4842 79.7802 64.0901 79.9457 62.8334 80.5003C61.601 81.0285 60.55 81.9055 59.8097 83.0234C59.0694 84.1413 58.6721 85.4512 58.6667 86.792V87.5003C58.6667 89.7105 57.7888 91.8301 56.226 93.3929C54.6632 94.9557 52.5436 95.8337 50.3334 95.8337C48.1233 95.8337 46.0037 94.9557 44.4409 93.3929C42.8781 91.8301 42.0001 89.7105 42.0001 87.5003V87.1253C41.9678 85.7462 41.5214 84.4086 40.7189 83.2866C39.9163 82.1645 38.7948 81.3098 37.5001 80.8337C36.2433 80.279 34.8493 80.1136 33.4976 80.3586C32.146 80.6037 30.8987 81.2481 29.9167 82.2087L29.6667 82.4587C28.8928 83.2335 27.9737 83.8481 26.9621 84.2675C25.9504 84.6869 24.866 84.9027 23.7709 84.9027C22.6758 84.9027 21.5914 84.6869 20.5797 84.2675C19.5681 83.8481 18.649 83.2335 17.8751 82.4587C17.1003 81.6847 16.4856 80.7656 16.0662 79.754C15.6469 78.7423 15.431 77.658 15.431 76.5628C15.431 75.4677 15.6469 74.3833 16.0662 73.3717C16.4856 72.36 17.1003 71.4409 17.8751 70.667L18.1251 70.417C19.0857 69.435 19.73 68.1878 19.9751 66.8361C20.2202 65.4845 20.0547 64.0904 19.5001 62.8337C18.9719 61.6013 18.0949 60.5503 16.977 59.8099C15.8591 59.0696 14.5492 58.6723 13.2084 58.667H12.5001C10.2899 58.667 8.17033 57.789 6.60752 56.2262C5.04472 54.6634 4.16675 52.5438 4.16675 50.3337C4.16675 48.1235 5.04472 46.0039 6.60752 44.4411C8.17033 42.8783 10.2899 42.0003 12.5001 42.0003H12.8751C14.2542 41.9681 15.5918 41.5217 16.7138 40.7191C17.8359 39.9166 18.6906 38.7951 19.1667 37.5003C19.7214 36.2436 19.8868 34.8495 19.6418 33.4979C19.3967 32.1462 18.7523 30.899 17.7917 29.917L17.5417 29.667C16.7669 28.893 16.1523 27.974 15.7329 26.9623C15.3135 25.9507 15.0977 24.8663 15.0977 23.7712C15.0977 22.676 15.3135 21.5916 15.7329 20.58C16.1523 19.5683 16.7669 18.6493 17.5417 17.8753C18.3157 17.1005 19.2348 16.4859 20.2464 16.0665C21.2581 15.6471 22.3425 15.4313 23.4376 15.4313C24.5327 15.4313 25.6171 15.6471 26.6287 16.0665C27.6404 16.4859 28.5595 17.1005 29.3334 17.8753L29.5834 18.1253C30.5654 19.0859 31.8126 19.7303 33.1643 19.9753C34.5159 20.2204 35.91 20.055 37.1667 19.5003H37.5001C38.7325 18.9721 39.7835 18.0951 40.5238 16.9773C41.2641 15.8594 41.6614 14.5494 41.6667 13.2087V12.5003C41.6667 10.2902 42.5447 8.17057 44.1075 6.60777C45.6703 5.04497 47.7899 4.16699 50.0001 4.16699C52.2102 4.16699 54.3298 5.04497 55.8926 6.60777C57.4554 8.17057 58.3334 10.2902 58.3334 12.5003V12.8753C58.3388 14.2161 58.736 15.5261 59.4764 16.6439C60.2167 17.7618 61.2677 18.6388 62.5001 19.167C63.7568 19.7216 65.1509 19.8871 66.5025 19.642C67.8542 19.3969 69.1014 18.7526 70.0834 17.792L70.3334 17.542C71.1074 16.7672 72.0264 16.1525 73.0381 15.7332C74.0497 15.3138 75.1341 15.0979 76.2292 15.0979C77.3244 15.0979 78.4088 15.3138 79.4204 15.7332C80.4321 16.1525 81.3511 16.7672 82.1251 17.542C82.8999 18.3159 83.5145 19.235 83.9339 20.2467C84.3533 21.2583 84.5691 22.3427 84.5691 23.4378C84.5691 24.533 84.3533 25.6173 83.9339 26.629C83.5145 27.6406 82.8999 28.5597 82.1251 29.3337L81.8751 29.5837C80.9145 30.5657 80.2701 31.8129 80.0251 33.1645C79.78 34.5162 79.9454 35.9103 80.5001 37.167V37.5003C81.0283 38.7327 81.9053 39.7837 83.0231 40.524C84.141 41.2644 85.451 41.6616 86.7917 41.667H87.5001C89.7102 41.667 91.8298 42.545 93.3926 44.1078C94.9554 45.6706 95.8334 47.7902 95.8334 50.0003C95.8334 52.2105 94.9554 54.3301 93.3926 55.8929C91.8298 57.4557 89.7102 58.3337 87.5001 58.3337H87.1251C85.7843 58.339 84.4744 58.7363 83.3565 59.4766C82.2386 60.2169 81.3616 61.268 80.8334 62.5003Z" stroke="#143C6D" stroke-width="6" stroke-linecap="round" stroke-linejoin="round"/>
</svg>
