<svg width="229" height="80" viewBox="0 0 229 80" fill="none" xmlns="http://www.w3.org/2000/svg">
<path d="M16.7512 75.6178L15.5574 76.8613V79.1121H13.4849V70.2085H15.5574V74.3536L19.4994 70.2085H21.7916L18.0983 74.1961L22.0071 79.1328H19.603L16.7512 75.6178Z" fill="#44535F"/>
<path d="M46.2424 74.6648C46.2424 77.3259 44.1699 79.2699 41.3678 79.2699C40.5859 79.278 39.8118 79.1139 39.1004 78.7891L38.2383 79.9995H36.8911L38.1637 78.2088C37.635 77.7821 37.2108 77.2402 36.9234 76.6246C36.6361 76.0089 36.4932 75.3358 36.5056 74.6565C36.4766 72.0161 38.5492 70.0513 41.3678 70.0513C42.1519 70.048 42.9277 70.212 43.6434 70.5321L44.5098 69.3135H45.8486L44.5719 71.1041C45.1033 71.5311 45.53 72.0739 45.8196 72.691C46.1091 73.3081 46.2537 73.9832 46.2424 74.6648ZM39.2911 76.6378L42.5616 72.0782C42.1844 71.9166 41.7782 71.8334 41.3678 71.8337C40.9934 71.8235 40.6209 71.8908 40.2737 72.0314C39.9265 72.1719 39.6121 72.3827 39.3502 72.6504C39.0883 72.9182 38.8846 73.2371 38.7517 73.5873C38.6188 73.9375 38.5598 74.3114 38.5782 74.6855C38.5666 75.402 38.8205 76.0974 39.2911 76.6378ZM44.1533 74.6648C44.17 73.9412 43.9158 73.2375 43.4403 72.6917L40.1823 77.2513C40.5565 77.4134 40.96 77.4966 41.3678 77.4958C41.74 77.5053 42.1103 77.4381 42.4555 77.2986C42.8007 77.159 43.1136 76.95 43.3747 76.6846C43.6359 76.4192 43.8398 76.1029 43.9737 75.7555C44.1076 75.4081 44.1687 75.0368 44.1533 74.6648Z" fill="#44535F"/>
<path d="M70.4126 76.6831C70.4126 78.2251 69.1691 79.1121 66.8479 79.1121H62.2427V70.2085H66.595C68.8209 70.2085 69.9691 71.1411 69.9691 72.5256C69.9773 72.9311 69.8702 73.3306 69.6604 73.6776C69.4505 74.0247 69.1465 74.3051 68.7836 74.4862C69.2631 74.615 69.685 74.9021 69.9807 75.3009C70.2765 75.6998 70.4287 76.1868 70.4126 76.6831ZM64.2903 71.7629V73.8644H66.3629C67.366 73.8644 67.9131 73.508 67.9131 72.8075C67.9131 72.1069 67.366 71.7629 66.3629 71.7629H64.2903ZM68.3401 76.4717C68.3401 75.7214 67.7639 75.365 66.682 75.365H64.2779V77.566H66.682C67.7639 77.566 68.3401 77.2344 68.3401 76.4717Z" fill="#44535F"/>
<path d="M93.3222 77.4624V79.1204H86.4248V70.2085H93.1564V71.8665H88.4766V73.7815H92.6217V75.3857H88.4766V77.4582L93.3222 77.4624Z" fill="#44535F"/>
<path d="M117.584 70.2085V79.1163H115.892L111.449 73.7277V79.1163H109.43V70.2085H111.134L115.565 75.6178V70.2085H117.584Z" fill="#44535F"/>
<path d="M142.313 70.2085V79.1163H140.24V75.4644H136.207V79.1163H134.135V70.2085H136.207V73.7235H140.253V70.2085H142.313Z" fill="#44535F"/>
<path d="M164.742 77.2095H160.597L159.805 79.1163H157.695L161.658 70.2085H163.731L167.714 79.1163H165.55L164.742 77.2095ZM164.095 75.6427L162.682 72.2354L161.268 75.6427H164.095Z" fill="#44535F"/>
<path d="M191.155 70.2085L187.3 79.1163H185.26L181.418 70.2085H183.648L186.355 76.5753L189.107 70.2085H191.155Z" fill="#44535F"/>
<path d="M214.512 70.2085V79.1163H212.816L208.377 73.7277V79.1163H206.342V70.2085H208.045L212.472 75.6178V70.2085H214.512Z" fill="#44535F"/>
<path d="M33.2435 41.2932V25.8114H17.1647C16.725 25.8114 16.3033 25.986 15.9923 26.297C15.6814 26.6079 15.5067 27.0297 15.5067 27.4694V29.4632C15.5067 29.9029 15.6814 30.3246 15.9923 30.6356C16.3033 30.9465 16.725 31.1212 17.1647 31.1212H26.6652V41.2932C26.6652 46.3129 23.5772 51.374 16.6756 51.374C10.458 51.374 6.57823 47.5067 6.57823 41.2932V16.0663C6.57823 9.33885 10.4331 5.32227 16.8746 5.32227C24.6051 5.32227 26.1347 11.2041 26.3295 16.8622C26.3391 17.1495 26.4599 17.422 26.6663 17.6222C26.8727 17.8224 27.1487 17.9348 27.4362 17.9357H31.8051C31.9539 17.9353 32.101 17.9049 32.2378 17.8465C32.3745 17.7881 32.4982 17.7029 32.6014 17.5958C32.7046 17.4887 32.7853 17.362 32.8386 17.2232C32.892 17.0843 32.9169 16.9362 32.9119 16.7875C32.5347 5.04455 27.6808 0 16.8746 0C6.31294 0 0 5.72849 0 15.3368V41.2932C0 50.8808 6.21761 56.6051 16.6756 56.6051C28.8911 56.6051 33.2559 48.7046 33.2559 41.2932H33.2435ZM1.94404 41.2932V15.3368C1.94404 6.8518 7.66424 1.58342 16.887 1.58342C26.1098 1.58342 31.1253 6.82279 31.1253 16.3399C31.1253 16.3399 31.1544 16.7544 30.6445 16.7544H28.6632C28.6087 16.7609 28.5535 16.7543 28.5021 16.7352C28.4507 16.716 28.4046 16.6849 28.3677 16.6443C28.3308 16.6038 28.3041 16.555 28.2899 16.502C28.2757 16.4491 28.2743 16.3935 28.286 16.3399C28.286 11.6518 26.802 3.78031 16.8746 3.78031C5.93574 3.78031 4.7544 12.3855 4.7544 16.087V41.2932C4.7544 48.5305 9.21035 52.8455 16.6756 52.8455C25.4756 52.8455 28.5968 46.6279 28.5968 41.2932V29.5751H18.2383C17.9954 29.5751 17.7624 29.4786 17.5906 29.3068C17.4188 29.135 17.3223 28.902 17.3223 28.659V28.2901C17.3201 28.1684 17.3421 28.0475 17.3872 27.9345C17.4322 27.8214 17.4993 27.7184 17.5846 27.6316C17.6699 27.5448 17.7716 27.4758 17.8839 27.4288C17.9961 27.3817 18.1166 27.3575 18.2383 27.3575H31.4155V41.2932C31.4155 49.7036 25.6124 55.1336 16.6756 55.1336C7.57719 55.1294 1.9316 49.8321 1.9316 41.2932" fill="#44535F"/>
<path d="M68.9034 40.7954V16.2317C68.9034 11.6099 67.3656 3.84619 57.0858 3.84619C46.0102 3.84619 45.1812 13.2638 45.1812 16.1653V40.5384C45.1812 45.0979 46.7314 52.7622 57.0982 52.7622C66.864 52.7622 68.9158 46.2503 68.9158 40.7954H68.9034ZM47.0008 40.5384V16.1653C47.0008 9.43789 50.7811 5.41717 57.0982 5.41717C63.4153 5.41717 66.9884 9.27209 66.9884 16.2482V40.7954C66.9884 47.6596 63.5645 51.2948 57.0982 51.2948C50.6319 51.2948 47.0008 47.3694 47.0008 40.5384Z" fill="#44535F"/>
<path d="M73.6575 41.2101V15.3946C73.6575 5.75312 67.4607 0.00390787 57.0772 0.00390787C44.7954 -0.000237202 40.4141 7.95416 40.4141 15.3946V41.2101C40.4141 50.9924 46.4907 56.6049 57.0855 56.6049C71.5021 56.6049 73.6658 46.9593 73.6658 41.2101H73.6575ZM42.3498 41.2101V15.3946C42.3498 6.88887 48.1529 1.38836 57.0938 1.38836C67.8835 1.38836 71.7094 8.6298 71.7094 15.3946V41.2101C71.7094 50.1883 66.528 55.1292 57.0855 55.1292C47.8545 55.1292 42.3415 49.9272 42.3415 41.2101" fill="#44535F"/>
<path d="M86.9839 29.5708V52.2609H95.9041C104.12 52.2609 107.618 48.8827 107.618 40.9573C107.618 33.0319 103.784 29.5708 95.1828 29.5708H86.9839ZM105.699 40.9573C105.699 45.5169 104.588 50.7853 95.9124 50.7853H88.8077V31.1252H95.1828C102.35 31.1252 105.691 34.2547 105.691 40.9573" fill="#44535F"/>
<path d="M93.4256 0.584961H83.4484C83.1222 0.590398 82.8112 0.723808 82.5824 0.956427C82.3537 1.18905 82.2255 1.50224 82.2256 1.82848V54.0978C82.2256 54.6303 82.4368 55.141 82.8129 55.5179C83.1891 55.8948 83.6993 56.1071 84.2318 56.1082H96.2152C107.461 56.1082 112.476 51.4367 112.476 40.958C112.476 36.8129 111.365 31.2792 106.064 28.245L105.554 27.9507L106.031 27.6274C109.654 25.1901 111.341 21.4098 111.341 15.7311C111.341 5.53418 105.475 0.584961 93.4256 0.584961ZM101.811 28.187C109.372 30.1642 110.549 36.9538 110.549 40.9745C110.549 50.2471 105.989 54.5662 96.2152 54.5662H84.9738C84.7253 54.5662 84.487 54.4675 84.3114 54.2919C84.1357 54.1162 84.037 53.8779 84.037 53.6294V2.71138C84.0381 2.62575 84.0561 2.54119 84.0901 2.4626C84.1242 2.38401 84.1734 2.31296 84.2351 2.25357C84.2968 2.19418 84.3697 2.14764 84.4496 2.11665C84.5294 2.08566 84.6146 2.07084 84.7002 2.07304H93.4048C104.182 2.07304 109.43 6.52899 109.43 15.7518C109.43 22.0647 106.943 26.1435 101.832 28.187" fill="#44535F"/>
<path d="M93.6292 4.34349H86.9971V27.3569H94.3629C102.483 27.3569 106.595 23.4398 106.595 15.7176C106.595 8.16525 102.243 4.33105 93.6416 4.33105L93.6292 4.34349ZM94.3629 25.7984H88.8085V5.80256H93.6292C100.842 5.80256 104.655 9.23467 104.655 15.7134C104.655 22.3082 101.094 25.7942 94.3504 25.7942" fill="#44535F"/>
<path d="M125.632 16.1656V40.5344C125.632 45.094 127.187 52.7583 137.558 52.7583C147.332 52.7583 149.375 46.2505 149.375 40.7956V16.2319C149.375 11.606 147.846 3.83398 137.558 3.83398C126.494 3.83398 125.632 13.264 125.632 16.1656ZM147.444 16.2485V40.7956C147.444 47.6557 144.028 51.2826 137.558 51.2826C131.087 51.2826 127.464 47.3697 127.464 40.5344V16.1656C127.464 9.43812 131.236 5.4174 137.558 5.4174C143.879 5.4174 147.444 9.26817 147.444 16.2485Z" fill="#44535F"/>
<path d="M137.558 0C125.264 0 120.882 7.95439 120.882 15.3948V41.2062C120.882 50.9927 126.963 56.6051 137.558 56.6051C151.974 56.6051 154.138 46.9595 154.138 41.2062V15.3948C154.138 5.75336 147.941 0 137.558 0ZM152.202 41.2062C152.202 50.1844 147.005 55.1295 137.558 55.1295C128.323 55.1295 122.814 49.9274 122.814 41.2062V15.3948C122.814 6.88496 128.617 1.3886 137.558 1.3886C148.356 1.3886 152.202 8.62589 152.202 15.3948V41.2062Z" fill="#44535F"/>
<path d="M167.174 55.0709L171.543 39.9414H185.545L189.561 54.8636C189.654 55.2061 189.857 55.5085 190.139 55.7242C190.42 55.9399 190.765 56.057 191.12 56.0574H194.299C194.574 56.0567 194.845 55.9926 195.091 55.8699C195.336 55.7472 195.551 55.5694 195.716 55.3503C195.882 55.1312 195.995 54.8767 196.046 54.6068C196.097 54.3369 196.085 54.0588 196.011 53.7942L181.383 1.74041C181.284 1.39659 181.076 1.09414 180.791 0.878224C180.505 0.662311 180.158 0.544531 179.8 0.54248H177.06C176.703 0.545158 176.357 0.662748 176.072 0.877798C175.788 1.09285 175.58 1.3939 175.481 1.73626L160.612 54.3206C160.555 54.5237 160.546 54.7371 160.585 54.9443C160.625 55.1514 160.711 55.3467 160.839 55.5149C160.966 55.683 161.13 55.8195 161.319 55.9136C161.507 56.0077 161.715 56.0569 161.926 56.0574H165.864C166.16 56.0566 166.447 55.96 166.683 55.7822C166.919 55.6043 167.091 55.3548 167.174 55.0709ZM177.893 2.01398H178.979C179.142 2.0142 179.301 2.06776 179.431 2.16651C179.562 2.26527 179.656 2.40383 179.7 2.56113L194.208 54.0098C194.224 54.0672 194.227 54.1275 194.215 54.1861C194.204 54.2446 194.179 54.2998 194.143 54.3472C194.107 54.3946 194.06 54.4329 194.007 54.4593C193.953 54.4856 193.895 54.4991 193.835 54.4989H192.044C191.886 54.499 191.732 54.4472 191.606 54.3513C191.481 54.2555 191.39 54.1209 191.348 53.9683L187.041 38.4616H169.827L165.553 53.8854C165.506 54.0635 165.401 54.2209 165.255 54.3328C165.108 54.4446 164.929 54.5045 164.745 54.503H163.141C163.058 54.5029 162.976 54.4836 162.901 54.4465C162.827 54.4095 162.762 54.3558 162.712 54.2896C162.662 54.2233 162.628 54.1464 162.612 54.0648C162.597 53.9832 162.6 53.8991 162.623 53.8191L177.176 2.55699C177.221 2.40114 177.315 2.26399 177.444 2.1661C177.573 2.06821 177.731 2.01484 177.893 2.01398Z" fill="#44535F"/>
<path d="M178.119 9.11947L170.463 36.1826H186.414L178.762 9.11947C178.741 9.05058 178.698 8.99024 178.641 8.94737C178.583 8.90449 178.513 8.88135 178.441 8.88135C178.369 8.88135 178.298 8.90449 178.241 8.94737C178.183 8.99024 178.14 9.05058 178.119 9.11947ZM178.443 14.649L184.001 34.707H172.872L178.443 14.649Z" fill="#44535F"/>
<path d="M211.36 55.9795H214.937C215.335 55.9795 215.717 55.8215 215.998 55.5401C216.28 55.2587 216.438 54.877 216.438 54.479V5.77444H227.024C227.155 5.77444 227.284 5.74868 227.404 5.69864C227.525 5.64859 227.634 5.57525 227.726 5.48282C227.818 5.39038 227.891 5.28068 227.941 5.16001C227.99 5.03934 228.015 4.91007 228.015 4.77962V1.46357C228.015 1.20044 227.911 0.948032 227.725 0.761587C227.539 0.575141 227.287 0.469846 227.024 0.46875H199.277C199.013 0.469846 198.76 0.575578 198.573 0.762801C198.387 0.950024 198.282 1.20349 198.282 1.46771V4.78377C198.282 5.04761 198.387 5.30065 198.574 5.48721C198.76 5.67378 199.013 5.77859 199.277 5.77859H209.859V54.4832C209.862 54.8801 210.021 55.26 210.302 55.5403C210.583 55.8206 210.963 55.9785 211.36 55.9795ZM200.206 3.69776V2.6159C200.206 2.45649 200.269 2.30362 200.382 2.1909C200.494 2.07818 200.647 2.01486 200.807 2.01486H225.536C225.708 2.01486 225.872 2.08299 225.993 2.20426C226.115 2.32552 226.183 2.49 226.183 2.66149V3.64802C226.183 3.73328 226.167 3.81782 226.135 3.89675C226.102 3.97568 226.055 4.04745 225.995 4.10794C225.935 4.16842 225.863 4.21643 225.784 4.24918C225.706 4.28194 225.621 4.2988 225.536 4.2988H214.614V53.708C214.614 53.9173 214.531 54.1181 214.383 54.2664C214.236 54.4148 214.036 54.4987 213.826 54.4998H212.475C212.265 54.4998 212.064 54.4163 211.915 54.2679C211.767 54.1194 211.683 53.918 211.683 53.708V4.2988H200.815C200.735 4.29989 200.656 4.28516 200.582 4.25545C200.508 4.22573 200.441 4.18164 200.385 4.12572C200.328 4.06979 200.283 4.00316 200.252 3.9297C200.221 3.85623 200.206 3.77739 200.206 3.69776Z" fill="#44535F"/>
</svg>
